<?xml version="1.0" encoding="UTF-8"?>
<svg id="Layer_1" data-name="Layer 1" xmlns="http://www.w3.org/2000/svg" viewBox="0 0 181.46 122.03">
  <defs>
    <style>
      .cls-1 {
        fill: #f68b1f;
      }

      .cls-2 {
        fill: #1e4079;
      }
    </style>
  </defs>
  <path class="cls-1" d="M166.89,7.27h-63.95c-4.45,0-8.07,3.61-8.07,8.07v88.02c0,4.45,3.61,8.07,8.07,8.07h63.95c4.45,0,8.07-3.61,8.07-8.07V15.34c0-4.45-3.61-8.07-8.07-8.07ZM119.25,100.3c0,1.56-1.27,2.83-2.83,2.83h-9.59c-1.56,0-2.83-1.27-2.83-2.83v-6.26c0-1.56,1.27-2.83,2.83-2.83h9.59c1.56,0,2.83,1.27,2.83,2.83v6.26ZM119.25,81.89c0,1.56-1.27,2.83-2.83,2.83h-9.59c-1.56,0-2.83-1.27-2.83-2.83v-6.26c0-1.56,1.27-2.83,2.83-2.83h9.59c1.56,0,2.83,1.27,2.83,2.83v6.26ZM119.25,63.48c0,1.56-1.27,2.83-2.83,2.83h-9.59c-1.56,0-2.83-1.27-2.83-2.83v-6.26c0-1.56,1.27-2.83,2.83-2.83h9.59c1.56,0,2.83,1.27,2.83,2.83v6.26ZM142.54,100.3c0,1.56-1.27,2.83-2.83,2.83h-9.59c-1.56,0-2.83-1.27-2.83-2.83v-6.26c0-1.56,1.27-2.83,2.83-2.83h9.59c1.56,0,2.83,1.27,2.83,2.83v6.26ZM142.54,81.89c0,1.56-1.27,2.83-2.83,2.83h-9.59c-1.56,0-2.83-1.27-2.83-2.83v-6.26c0-1.56,1.27-2.83,2.83-2.83h9.59c1.56,0,2.83,1.27,2.83,2.83v6.26ZM142.54,63.48c0,1.56-1.27,2.83-2.83,2.83h-9.59c-1.56,0-2.83-1.27-2.83-2.83v-6.26c0-1.56,1.27-2.83,2.83-2.83h9.59c1.56,0,2.83,1.27,2.83,2.83v6.26ZM165.82,100.3c0,1.56-1.27,2.83-2.83,2.83h-9.59c-1.56,0-2.83-1.27-2.83-2.83v-6.26c0-1.56,1.27-2.83,2.83-2.83h9.59c1.56,0,2.83,1.27,2.83,2.83v6.26ZM165.82,81.89c0,1.56-1.27,2.83-2.83,2.83h-9.59c-1.56,0-2.83-1.27-2.83-2.83v-6.26c0-1.56,1.27-2.83,2.83-2.83h9.59c1.56,0,2.83,1.27,2.83,2.83v6.26ZM165.82,63.48c0,1.56-1.27,2.83-2.83,2.83h-9.59c-1.56,0-2.83-1.27-2.83-2.83v-6.26c0-1.56,1.27-2.83,2.83-2.83h9.59c1.56,0,2.83,1.27,2.83,2.83v6.26ZM166.34,41.72c0,2.69-2.18,4.87-4.87,4.87h-53.11c-2.69,0-4.87-2.18-4.87-4.87v-19.18c0-2.69,2.18-4.87,4.87-4.87h53.11c2.69,0,4.87,2.18,4.87,4.87v19.18Z"/>
  <g>
    <path class="cls-2" d="M88.6,29.89h-34.88c-1.45,0-2.89-.66-6.57,10.52-.35,1.07-.7,2.14-1.05,3.2h-26.26c-1.65,0-2.98,1.33-2.98,2.98h0c0,1.65,1.33,2.98,2.98,2.98h24.34c-2.43,7.53-4.48,13.71-5.71,15.04-1.71,1.84-5.92,2.89-5.92,7.89v17.62s-3.55-.79-3.68,1.97c-.13,2.76,0,6.31,0,8.02s.4,2.63,2.1,2.63h13.97c-.02-.34-.03-.68-.03-1.03,0-9.84,7.98-17.82,17.82-17.82s17.82,7.98,17.82,17.82c0,.35,0,.69-.03,1.03h10.16V31.96c0-1.14-.93-2.07-2.07-2.07ZM75.77,63.34c0,.8-.65,1.44-1.44,1.44h-24.62c-.98,0-1.68-.96-1.37-1.89l6.15-18.72c.19-.59.75-.99,1.37-.99h18.46c.8,0,1.44.65,1.44,1.44v18.72Z"/>
    <path class="cls-2" d="M62.52,89.07c-7.09,0-12.84,5.75-12.84,12.84s5.75,12.84,12.84,12.84,12.84-5.75,12.84-12.84-5.75-12.84-12.84-12.84ZM62.52,107.53c-3.1,0-5.62-2.51-5.62-5.62s2.51-5.62,5.62-5.62,5.62,2.51,5.62,5.62-2.51,5.62-5.62,5.62Z"/>
    <path class="cls-2" d="M32.89,61.28c.67-1.5,1.31-2.92,1.91-4.19.27-.58-.15-1.25-.79-1.25H9.5c-.82,0-1.57.33-2.11.87-.54.54-.87,1.28-.87,2.11,0,1.64,1.34,2.98,2.98,2.98h22.59c.35,0,.66-.21.8-.52Z"/>
    <path class="cls-2" d="M28.63,68.07h-13.51c-.82,0-1.57.33-2.11.87-.54.53-.87,1.27-.87,2.08-.01,1.65,1.44,3,3.09,3h11.67c.36,0,.69-.22.82-.55.55-1.35,1.14-2.76,1.73-4.18.25-.59-.19-1.23-.82-1.23Z"/>
  </g>
  <g>
    <path class="cls-2" d="M119.18,25.64h-5.94v13h5.66c2.57,0,4.55-.56,5.93-1.69,1.38-1.13,2.07-2.73,2.07-4.81s-.66-3.74-1.97-4.84-3.23-1.66-5.76-1.66ZM118.99,36.06h-2.59v-7.83h2.81c2.94,0,4.41,1.3,4.41,3.9s-1.54,3.93-4.63,3.93Z"/>
    <path class="cls-2" d="M133.14,25.64l-5.86,13h3.3l1.15-2.77h6.37l1.2,2.77h3.39l-5.86-13h-3.68ZM132.73,33.44l2.2-5.23,2.22,5.23h-4.42Z"/>
    <path class="cls-2" d="M155.47,32.3c-.74-.63-1.93-1.08-3.56-1.34l-.28-.05-2.45-.39c-.27-.04-.51-.08-.72-.13-.44-.1-.75-.22-.96-.35-.32-.21-.47-.52-.47-.93,0-.46.27-.81.79-1.06.18-.08.4-.16.64-.21.44-.11.96-.16,1.58-.16s1.17.07,1.59.22c.17.04.33.11.46.18.49.27.85.7,1.08,1.31l3.06-.34c-.28-1.27-.91-2.22-1.91-2.83-.69-.42-1.59-.7-2.7-.83v-2.19c0-.25-.21-.46-.46-.46h-2.25c-.25,0-.46.21-.46.46v2.2c-1.18.15-2.16.45-2.93.92-1.12.68-1.68,1.64-1.68,2.87,0,1.12.4,1.99,1.2,2.62.73.57,1.86,1,3.4,1.29.15.02.3.05.46.07l2.32.35c.13.02.27.04.39.07.55.1.96.25,1.23.45.33.23.5.55.5.95,0,.52-.27.92-.79,1.2-.25.13-.57.23-.93.29-.39.07-.85.11-1.37.11-.7,0-1.31-.07-1.8-.23-.25-.06-.47-.16-.67-.27-.58-.33-.93-.85-1.07-1.54h-3.21c.25,2.49,1.91,3.92,4.94,4.3v2.21c0,.25.21.46.46.46h2.25c.25,0,.46-.21.46-.46v-2.16c1.4-.12,2.5-.45,3.33-.97,1.08-.69,1.61-1.7,1.61-3.01,0-1.13-.36-2-1.1-2.63Z"/>
  </g>
</svg>